<svg xmlns="http://www.w3.org/2000/svg" viewBox="0 0 791.5 731.19"><defs><style>.cls-1{fill:#d6211d;}.cls-2{fill:#2e186a;}.cls-3{fill:#fff;}.cls-4{fill:#fb9390;}.cls-5{fill:#e8605d;}.cls-6{fill:#ef7f7f;}.cls-7{fill:#f7a491;}.cls-8{fill:#fa7167;}.cls-9{fill:#f47458;}.cls-10{fill:#0b0754;}.cls-11{fill:#201251;}</style></defs><title>big-illustration</title><g id="Warstwa_2" data-name="Warstwa 2"><g id="Layer_1" data-name="Layer 1"><path class="cls-1" d="M652.7,306.74a1.5,1.5,0,0,0-1.51-.46c-2.7.73-7.59-.35-10-1.2l-2.63-13c1.9-1.71,6-4.61,8.75-5a1.49,1.49,0,0,0,1.22-1l3.33-9.91a1.48,1.48,0,0,0-.37-1.53c-2-2-3.48-6.75-4-9.27l10-8.79c2.44.79,7,2.87,8.7,5.08a1.51,1.51,0,0,0,1.48.56l10.24-2.07a1.47,1.47,0,0,0,1.15-1.09c.72-2.7,4.11-6.38,6-8.05l12.59,4.23c.54,2.5,1,7.49-.05,10.07a1.48,1.48,0,0,0,.26,1.56l6.91,7.84a1.5,1.5,0,0,0,1.52.45c2.7-.73,7.58.36,10,1.21l2.63,13c-1.9,1.72-6,4.62-8.75,5a1.5,1.5,0,0,0-1.22,1l-3.33,9.9a1.51,1.51,0,0,0,.36,1.54c2,2,3.48,6.75,4,9.27l-10,8.79c-2.43-.79-7-2.88-8.69-5.09a1.51,1.51,0,0,0-1.48-.55l-10.25,2.07a1.51,1.51,0,0,0-1.15,1.08c-.71,2.7-4.1,6.39-6,8.06l-12.6-4.23c-.53-2.51-1-7.49.06-10.08a1.53,1.53,0,0,0-.26-1.56Zm28.66-3.2a13.09,13.09,0,1,0-15.42-10.24A13.09,13.09,0,0,0,681.36,303.54Zm1.66,8.23A21.48,21.48,0,1,0,657.71,295,21.49,21.49,0,0,0,683,311.77Z"/><path class="cls-1" d="M737.31,353.38a1.19,1.19,0,0,1,.92-.86l8.1-1.64a1.19,1.19,0,0,1,1.18.44c1.35,1.75,5,3.4,6.88,4l7.89-7c-.37-2-1.56-5.77-3.13-7.33a1.2,1.2,0,0,1-.29-1.22L761.5,332a1.18,1.18,0,0,1,1-.8c2.19-.29,5.42-2.59,6.92-3.95l-2.08-10.31c-1.91-.67-5.78-1.53-7.92-1a1.18,1.18,0,0,1-1.2-.36l-5.47-6.2a1.2,1.2,0,0,1-.21-1.24c.84-2,.47-6,0-8l-10-3.36c-1.53,1.33-4.22,4.25-4.78,6.39a1.18,1.18,0,0,1-.92.85l-8.1,1.64a1.19,1.19,0,0,1-1.18-.44c-1.35-1.75-5-3.4-6.88-4l-7.9,7c.38,2,1.57,5.77,3.14,7.34a1.18,1.18,0,0,1,.29,1.21l-2.64,7.84a1.18,1.18,0,0,1-1,.8c-2.19.3-5.42,2.59-6.92,3.95l2.08,10.32c1.91.67,5.78,1.53,7.92.95a1.18,1.18,0,0,1,1.2.36l5.47,6.2a1.2,1.2,0,0,1,.21,1.24c-.84,2.05-.47,6-.05,8l10,3.35C734.06,358.44,736.75,355.52,737.31,353.38Zm2.8-12.44a12.9,12.9,0,1,1,10.08-15.19A12.9,12.9,0,0,1,740.11,340.94Z"/><path class="cls-2" d="M167.1,189.42l-9-3.4-7.91,5.5a1.32,1.32,0,0,1-2.08-1.15l.45-9.62-7.67-5.82a1.32,1.32,0,0,1,.45-2.33l9.28-2.55,3.17-9.09a1.32,1.32,0,0,1,2.35-.29l5.3,8,9.63.2a1.32,1.32,0,0,1,1,2.15l-6,7.52,2.78,9.22A1.32,1.32,0,0,1,167.1,189.42Z"/><polygon class="cls-2" points="181.44 131.86 176.54 118.71 164.01 122.46 158.61 109.72 146.2 111.82 140.6 102.94 136.11 105.78 143.59 117.65 155.36 115.65 160.97 128.91 173.3 125.22 177.74 137.14 181.44 131.86"/><polygon class="cls-2" points="707.45 192.41 695.14 185.66 688.11 196.7 675.7 190.59 667.68 200.3 657.64 197.25 656.1 202.34 669.53 206.42 677.12 197.21 690.04 203.56 696.95 192.71 708.1 198.82 707.45 192.41"/><polygon class="cls-2" points="383.03 26.68 377.77 39.69 389.54 45.38 384.92 58.43 395.5 65.26 393.63 75.58 398.86 76.53 401.35 62.71 391.33 56.24 396.14 42.67 384.56 37.07 389.33 25.28 383.03 26.68"/><polygon class="cls-1" points="693.35 362.01 690.77 356.92 684.94 357.11 682.44 351.19 676.3 353.32 673.18 346.75 667.28 348 663.25 342.17 665.46 340.64 668.47 345.01 674.7 343.68 677.69 349.99 683.94 347.83 686.69 354.37 692.39 354.18 694.78 358.9 698.5 357.99 699.13 360.6 693.35 362.01"/><polygon class="cls-1" points="585.62 125.85 582.9 117.75 595.45 111.92 592.93 99.58 601.61 93.69 598.63 89.3 587.02 97.18 589.41 108.87 576.35 114.93 580.45 127.12 585.62 125.85"/><path class="cls-2" d="M686.19,107.16c13.84,21.16-5,50.51-29.63,46.15a18.65,18.65,0,0,0-13,2.67l-13.63,8.41a7.87,7.87,0,0,1-10.84-2.31l-5.24-8a8.92,8.92,0,0,1,1.79-11.53C628,132,633.2,129,634.85,120.13,639.69,94.24,672.35,86,686.19,107.16Z"/><path class="cls-3" d="M653.69,118.8a25,25,0,0,1-.65-3.73c-.63-7.39,5.09-9.95,8.1-8,1.93,1.22,2.71,4,1.6,6.73-1,2.41-3.16,4.16-5.34,6.07a35.61,35.61,0,0,0,5.48,11.26c6.74-4.06,11.55-1.84,11.87,1.83a6,6,0,0,1-3.6,5.79c-1.36.59-4.89,1.41-9.07-3.21-11.38,8-26.22,19.88-26.27,19.91l-1.89-2.62c.05,0,14.81-11.81,26.15-19.82a38.86,38.86,0,0,1-5.43-10.73c-13,11.32-24.39,20.27-24.79,20.6L628,140.21C628.8,139.54,639.87,130.91,653.69,118.8Zm5.46-9c-1-.38-3.67.72-2.6,6.49C659.56,113.65,660.47,112.49,659.15,109.79ZM665,133.63c1.65,1.72,4.16,3.28,5.84,1.42C673,132.66,669.87,130.87,665,133.63Z"/><path class="cls-2" d="M643.9,155.79c-.11.07-.23.12-.35.19l-13.63,8.41a7.87,7.87,0,0,1-10.84-2.31l-5.24-8a8.92,8.92,0,0,1,1.79-11.53c5.48-4.7,9.56-7.9,12.55-10.78Z"/><path class="cls-4" d="M32,552.89s-.45-2.17-.54-2.9-.23-3.45-.23-3.45,0-9,.67-9,1.54,1.61,1.73,2.17.48,1.19.68,1.75a1.15,1.15,0,0,0,1.48.68c.72-.2.42-2.59.15-3.4-.84-2.52-4.43-8.8-4.78-9.48s2.47-16.52,3-22h0c1.18-8.91,2.85-18,3-18.95l15.87-35.07-10.6-10.82s-18.15,38.68-18.84,40.71c-.33,1-1.47,21.84-1.47,21.84.09,10.31.18,19.39.15,21.14,0,0-1.49,5.2-2.64,8.45s-.9,6.7-1.08,7.67a22.5,22.5,0,0,0-.28,7.53c.48,3.55,1.66,0,1.66,0s.31-6.74.84-6.63,0,3.76.51,7.68c.12,1,.25,2,.38,2.93.32,2.39,1.9,2.86,2,.29a24.91,24.91,0,0,0-.13-3.49,19.43,19.43,0,0,1,.07-3.27,26.93,26.93,0,0,1,.09-3.39c.11.06.39-.33.56.74.2,1.28,0,4.11.46,6,.25,1.06.64,3.3.64,3.3a23.42,23.42,0,0,0,1.24,3.55c1.18,0,1.18-2.82.65-4.2a16.07,16.07,0,0,0-.36-3.41s.12-5,.83-5,2.62,11.92,3.8,11.79C32.49,556.51,32,552.89,32,552.89Z"/><path class="cls-5" d="M46.64,473.57a75.34,75.34,0,0,1-10.08-2.44c-4.66-1.73-7.73-3.25-7.73-3.25S34,446,40.33,432.71c2.64-5.5,5.3-8.15,9-8.78,0,0,7.84,5.15,7.53,17.55C56.81,444.4,46.64,473.57,46.64,473.57Z"/><path class="cls-4" d="M66.89,547.12l8.53,78.53s-4.17,16.6-3.67,21.32S81,713.58,81,713.58l-.37,3.47V727.3h32.57a145.9,145.9,0,0,1-16.58-9.49,6.85,6.85,0,0,1-2.77-4.91c-2.58-19.08,2.53-82.7,2.53-82.7l4-82.82Z"/><path class="cls-4" d="M40.71,563.64c-1.84.48-4.67,68-6.19,71-9.66,19-12,76.65-12,76.65l-2.81,8.21-3,10.08s9.65,2.64,14.7-.24l-.56-9.93-.51-9.08,24.36-71.86,13.34-73.29Z"/><path class="cls-1" d="M89.17,432.85c-3.93-5.53-20.15-21.55-22-21.52-5.25.1-22.49.1-25.86,1.87l0,3.77a203.18,203.18,0,0,0,6.49,50c3,11.38,5.76,23.53,5.41,27.89l.08.08a23.39,23.39,0,0,0,34.83-1.72h0a208,208,0,0,1,1.36-23.13C91.75,452.8,98.93,446.59,89.17,432.85Z"/><path class="cls-4" d="M61.94,394.17s.45,11.25-.53,15.51-2.29,4.59,6.14,5.89c3.31.51,6.5,1.27,6.5,1.27s-.87-6.27-1-8.91c-.21-4.35,1-17.8,1-17.8Z"/><path class="cls-6" d="M68.35,399.76a14.62,14.62,0,0,0,4.85,1.77c.29-5.31.83-11.4.83-11.4L62.49,394A15.29,15.29,0,0,0,68.35,399.76Z"/><path class="cls-4" d="M64.61,362.65a14.74,14.74,0,0,0-7.47,7c-2.66,5.3-3.65,20.21,6.82,26,5.19,2.88,11.17,3.43,14,.89s2.52-8.34,2.24-13.13C79.62,374,77.53,359.64,64.61,362.65Z"/><path class="cls-7" d="M56.89,381.37c.6,2.49-.2,4.89-1.77,5.36s-3.33-1.16-3.93-3.64.2-4.9,1.77-5.37S56.3,378.88,56.89,381.37Z"/><path class="cls-8" d="M30.89,719.36c-4.45,2-9.21.78-11.13.13L16.67,729.6s9.71,2.88,14.77,0Z"/><path class="cls-9" d="M35.12,603.74h0Z"/><path class="cls-8" d="M80.31,729.85h33.86c1.25-.12,1.56-1.17,1.12-1.82-.89-1.34-4.84-2.32-9.28-4.45-7.79.84-24.13-4.69-25.36-6.55C79.94,720.75,79.62,729.69,80.31,729.85Z"/><path class="cls-4" d="M148.32,458.43c.66-.91,2.85-5.37,2.85-5.37s2.28-7.64,1.81-7.54c-.29.06-1.22,1.14-2.33,3.45-.68,1.41-1.43,3.89-2.13,5.11-1.23,2.14-2.61,3-2.27,2.21.25-.6,1.1-1.1,1.84-2.38,1.81-3.13,3.41-8.25,2.71-8.14s-2.36,3.61-4.3,6.35c-.84,1.2-3.24,2.7-4.75,3.65a6.22,6.22,0,0,1,.31-1.68c.19-.6,2.88-4.17,1.83-4.61s-7.46,7.27-7.46,7.27l-2.63,4.48-.23.17h0s-31.93,12.52-33,12.18c-2.51-.79-11.09-25.67-11.09-25.67L71.6,451.13c-.26-.14,18.78,37,22.33,38.85,3.12,1.6,36.31-15.69,42.55-19.39,8.59-3.31,11.94-7.24,13.33-9.25.75-1.08,3.63-5.78,3.63-5.78s.61-6.52.15-6.58c-1.58-.19-2,5.95-2,5.95s-2.13,2.9-2.51,3.28C148.16,459.15,148.32,458.43,148.32,458.43Z"/><path class="cls-1" d="M60.07,426.24c-2.44,10.34,10.56,33.38,10.56,33.38s18.53-9,21.79-12.88c0,0-12.78-21.09-13.57-22.47-1.71-3-7.72-9.12-11.76-8C64.51,417,60.07,426.24,60.07,426.24Z"/><path class="cls-10" d="M63,400.76c1.39-9.49,17.11-28.8,11-36.88-4.92-6.53-13.48-4.57-18.94-2.7C30.35,369.7,31.77,400.82,24,405.69,9.79,414.51,1.07,420,.05,439.89c-1.21,23.57,18.82,35.62,42.9,29.85,12.94-3.1,16.38-7.34,21.57-19.57,2.34-5.51,7.06-22.7,5.77-31.1C69.13,411.55,61.9,408.39,63,400.76Z"/><path class="cls-4" d="M72.42,383.38c0,2.8-1,5.08-2.27,5.08s-2.28-2.28-2.28-5.08,1-5.08,2.28-5.08S72.42,380.57,72.42,383.38Z"/><path class="cls-2" d="M103.46,598.2l1.16-46.58A92.13,92.13,0,0,0,97,513.41l-8.8-20.2a53.49,53.49,0,0,1-10.66,2.59c-8.14.94-16.15,0-24.25-.95a5.45,5.45,0,0,1-.11.82c-1.47,6.86-9.65,22.16-13.1,43.07-3.91,23.73-5.38,59.22-4.89,62C72.6,602.44,81.52,603.79,103.46,598.2Z"/><path class="cls-11" d="M569.53,365l28.18,28.18s53.67,21,59.66,33.87-5.4,12.29-18,10.5-48.26-24-48.26-24l-32.68-37.77Z"/><path class="cls-4" d="M696.27,701.82s5,3.19,5.36,4.66,4,17.35,2.68,19.2-6.34,1-4.4,2.29c1.46,1,10.88,1.79,16.9.16,1.76-.47,1-15.33,1.21-17.59.38-3.29,2.65-10.75,1.27-12.69-.67-1-4.54-2.61-8-4-3.66-1.42-7.72-5.46-7.72-5.46Z"/><path class="cls-10" d="M711,693.76S708,721.94,704.62,724c-.91.55-5.73,1-6.17,3.26,0,.06-.12,2.36,1.34,2.42l18.27-.06s.19-13.86.08-19.28c0,0,2.52-13.86,1.7-14.9S711,693.76,711,693.76Z"/><path class="cls-4" d="M767.77,701.82s5,3.19,5.36,4.66,4,17.35,2.68,19.2-6.34,1-4.4,2.29c1.46,1,10.88,1.79,16.9.16,1.76-.47,1-15.33,1.21-17.59.38-3.29,2.65-10.75,1.27-12.69-.67-1-4.54-2.61-8-4-3.66-1.42-7.72-5.46-7.72-5.46Z"/><path class="cls-1" d="M678,518.62s16.71,33.17,20.13,42.08l25.46,64.59,56.14,66s-4.11,10.61-10.32,13.46c0,0-67.69-54.66-73.26-63.27C687.69,628.4,649,548,649,548l-7.18-15.46Z"/><path class="cls-1" d="M637.66,518.27l.26,28.28s-12.08,92.4-9.74,97.89c5.71,13.39,68.5,58.76,68.5,58.76l8.55-14.69-45.12-50.37,17.09-49c4.78-11.38,14.95-33.38,14.69-45.73-.22-10.58-21.19-35.12-21.19-35.12Z"/><path class="cls-2" d="M663.3,560.07c16.63-3.78,30.1-9.66,31.48-14.3.62-2.1-8.66-23.2-15.48-51.38-2.23-9.2-1.83-17.84-5.4-50.07-.76-6.83-3.59-21.16-14.17-24.85a15.74,15.74,0,0,0-5.8-1.13c-.08,0-13.46.1-19.58,3.5-1.51,2.05-7.14,13.27-8.64,43.84-.66,13.36-3.32,56.22-2.78,63.19.09,1,.19,2,.31,3C625.64,550.37,645.1,564.2,663.3,560.07Z"/><path class="cls-4" d="M633.89,442.74h.05c6.78-.75,23.84-23.1,23.84-23.1l0-.06-10.53-16.67s-15.5,2.83-12.47,7.55,4.74,16,4.74,16a3.7,3.7,0,0,1-.22.47C638.2,429.29,634.72,436.14,633.89,442.74Z"/><path class="cls-6" d="M634.75,410.46c-3-4.72,12.47-7.55,12.47-7.55l.87,1.39a8.76,8.76,0,0,1-.43,3.17,20.35,20.35,0,0,1-9.88,10.89A30.09,30.09,0,0,0,634.75,410.46Z"/><path class="cls-4" d="M638.46,376.55c.34-.31,12.09,19,9.27,27s-12.32,14.31-18,11.47c-6.24-3.14-15.68-25.32-10-34.73S638.46,376.55,638.46,376.55Z"/><path class="cls-10" d="M621.44,367.88c6.92-1.49,19.28.55,26.24,5.45,8.56,6,8.84,16.7,5,23.69s-1.53,12.13-1.53,12.13-12-.76-14.47-8.95c-1-3.43.25-5.76-2.06-7.69-1.78-1.5-3.27-5.84-5-9.33,0,0-7.76-4.12-10.71-.73C617.84,383.62,612.56,369.78,621.44,367.88Z"/><path class="cls-4" d="M633.39,394c1.05,2.52,3.1,4.08,4.57,3.46s1.8-3.15.75-5.68-3.1-4.08-4.57-3.46S632.34,391.48,633.39,394Z"/><path class="cls-10" d="M782.55,693.79s-3,28.15-6.43,30.24c-.91.55-5.73,1-6.17,3.26,0,.06-.15,2.44,1.35,2.4l18.25,0s.21-13.86.09-19.28c0,0,2.52-13.86,1.7-14.9S782.55,693.79,782.55,693.79Z"/><path class="cls-1" d="M379,563.68c-14.5-30.34-18.49-75.63-2.68-111.54,26.65-60.62,100-85.37,94.58-154.07-1.36-17.3-9.06-31.22-20.4-40.18-29.85-23.57-77.87-11.09-112.14,5.36Q305.52,279,277.36,308l-9.53-121.35c41.14-29.2,90.92-44.46,140.61-48.36,101.82-8,180.45,30.18,188.45,132,7.3,92.89-55.47,134-97.58,180.47-23.37,25.78-28.65,45.63-26.85,68.63.94,11.89,5.4,26.57,12.56,35.93ZM452.1,729.62c-99,7.77-110.43-125.19-10.45-133C540.13,588.84,550.69,721.87,452.1,729.62Z"/><path class="cls-4" d="M554.44,371.12c-.18-.84.5-.18-.76-6.73a12.33,12.33,0,0,0-2.42-4.95,11.53,11.53,0,0,0-2.25-2,1.12,1.12,0,0,0-1.79,1c.23.63,1.4,2.78,1.62,3.4s.33,2.15-.19,2.66-8.71-8.89-9.22-9.71a33.07,33.07,0,0,1-1.4-3.76s-.72-2.22-1.59-1.66c-.57.37-1.2,2.2.44,5.82,1.44,3.15,3.43,5.67,3.2,5.85-.59.49-4.15-3.77-4.15-3.77a18.65,18.65,0,0,0-2.08-3.22c-.53-1.58-1.5-3.54-2.51-2.78a21.06,21.06,0,0,0,.49,3.51s1.24,2.22,1.77,3.32c.93,1.93,3.06,4.27,3.78,5.53.61,1.05,0,.81,0,.93a29.41,29.41,0,0,1-2.35-2.79,23.71,23.71,0,0,1-2.35-2.82,27.36,27.36,0,0,0-2.32-3.13c-1.84-2.21-2.83-.71-1.42,1.61.53.88,1.12,1.84,1.72,2.81,2.34,3.77,5.22,6.71,4.94,7.06s-5.32-5.21-5.32-5.21-3.49-2.33-1.41,1.1a35.41,35.41,0,0,0,5.14,6.62c.82.71,3,4.08,6.23,6.13s8.44,5.15,8.44,5.15c.6.72,2.13,3.07,4.25,6.4l7.8-9.39C558,375.32,554.57,371.7,554.44,371.12Z"/><path class="cls-2" d="M548.29,384.37l10.79-9.45,37.06,36.58s57.38,5,57.53,5.07l2.29.72c20.82,7.19,12.25,24.17,8.24,26.8-9.34,6.12-61.22,2.45-77.84-7.86C572.68,427.74,548.29,384.37,548.29,384.37Z"/><path class="cls-4" d="M162.05,436.81a12.86,12.86,0,0,0,1.18,3c3.39,6.59,11.26,16,11.26,16l6.08-14.63s-1-4.6-2.71-11.17C172,431.68,166.39,432.63,162.05,436.81Z"/><path class="cls-2" d="M196.94,424.12s-33.94,15.59-35,15.3c-.71-.19-13.93-23.8-14.07-46-.06-10.25,9.91-22.59,21-20.15,5.6,1.23,5.51,2.89,13.8,15.75S196.94,424.12,196.94,424.12Z"/><path class="cls-4" d="M225.91,703.77s-.8,14.23-.81,14.26c-.29,1.8-1.46,6.27-1.46,7.91,0,6.17,27.45-5.24,21.3-8-.56-.25-3.48-2.12-3.66-4.22-.28-3.23-1-9.78-1-9.78Z"/><path class="cls-10" d="M244.87,717.91a98.58,98.58,0,0,1-9.75,2.36c-3.3.47-7.65-3.5-10-2.43-2.57,1.18-2.47,11.81-2.47,11.81s34.55,3,44.27-.1C270.79,728.31,258,722.31,244.87,717.91Z"/><path class="cls-4" d="M169.77,703.77S169,718,169,718c-.29,1.8-1.46,6.27-1.46,7.91,0,6.17,27.44-5.24,21.29-8-.55-.25-4.33-3.52-4.52-5.62-.28-3.23-.13-8.38-.13-8.38Z"/><path class="cls-10" d="M188.73,717.91a98.58,98.58,0,0,1-9.75,2.36c-3.3.47-7.65-3.5-10-2.43-2.57,1.18-2.67,11.81-2.67,11.81s34.71,3.53,44.47-.1C214.59,728.14,201.9,722.31,188.73,717.91Z"/><path class="cls-4" d="M178.16,444.69l24.17-36.14q.15-.46.66-1.95c1.21-3.58,3.75-11.05,5.95-18.47l0-.08c.69-2.59,2.16-7.12,3.58-11.5,1.58-4.87,3.54-10.9,3.61-11.93-.06-.18-.17-.5-.32-.92a86.39,86.39,0,0,1-2.51-10.84c-.27-1.62-.54-5.56,1.26-5.56,2.84,0,1.49,3.94,2.79,6.39a66.83,66.83,0,0,0,2-8.19l.47-7.68c.09-.58-.48-4.82,1.5-4.82h.1c1.79.14,1.75,4.65,2.49,12.27.23-.88.47-1.93.64-2.91a29.58,29.58,0,0,1,.61-4c-.36-2.12-.15-5.47,2-5.16,1.06.16,1,4.84,1,4.84,0,.64-.07,5.58,0,6.56.22-1.66,1.07-8.73,2.73-8.73,1.38,0,1.49,1.9,1.46,3.41,0,.89-.88,8.55-.93,9.44.65-1.16,1.42-7.91,2.06-7.91,2.69,0,1.72,9.6.73,12.1a11.58,11.58,0,0,0-.3,1.34,24.74,24.74,0,0,1-2.31,7.14c-1.69,3.08-4,8-4.37,8.74-.26,1.53-1.07,7-2.09,13.95-.43,3-.91,6.22-1.41,9.58h0c-.09.73-.6,3-2.51,11.73-2.62,11.89-2.89,12.4-3,12.62-1.14,2.15-27.2,39.92-28.31,41.52l-.65.95Z"/><path class="cls-6" d="M223.12,360.41s-2-5.36-5.46-5.37a3.81,3.81,0,0,1,3.63.67C223,357.12,223.12,360.41,223.12,360.41Z"/><path class="cls-4" d="M172.32,350.06l-3.11,21s11.85,10.16,18.77,8c5.79-1.8,1.82-9.89,1.82-9.89s-3.09-11.21-2.14-17.09S172.32,350.06,172.32,350.06Z"/><path class="cls-6" d="M174.55,356.41a46.31,46.31,0,0,0,13.42,4,29.66,29.66,0,0,1-.31-8.35c.43-2.71-2.8-3.35-6.41-3.26-4.72.44-8.93,1.22-8.93,1.22l-.6,4A9.9,9.9,0,0,0,174.55,356.41Z"/><path class="cls-4" d="M157.36,325.84c-.49,0,4.68,23.46,12.69,27.5s20,1.93,22.2-4.39c2.48-7-6.56-30.92-17.83-34S157.36,325.84,157.36,325.84Z"/><path class="cls-10" d="M166.63,304.28a26.54,26.54,0,0,0-10.33,12.17c-3,1.52-6.63,4.81-8.38,13.68-2.14,10.9,5.48,19.3,13.57,21.82s9.45,8.24,9.45,8.24l.8-6.14s-1.8-5.35-4.51-8,1.28-6.58,1.64-9.76c.26-2.45-1.43-7.21-1.06-11.23,0,0,4.49-7.27,8.92-9.06C184.28,312.91,174.84,299.23,166.63,304.28Z"/><path class="cls-4" d="M170,340.34c1.05,2.71.62,5.4-.95,6s-3.7-1.09-4.75-3.8-.62-5.4.95-6S169,337.63,170,340.34Z"/><path class="cls-4" d="M199.87,445.27l46.62-8.11s-5.3-14.25-7.2-14.25S204,438.45,204,438.45l-2.66,5.68Z"/><path class="cls-2" d="M176,479.39s-4.65,24-2.76,42.19,2.05,82.83,2.05,82.83L168,707.83l17.16.4s20.35-103.37,20-100.72S212,534.73,212,534.73l-24.26-57.62Z"/><path class="cls-2" d="M180.54,478.25s-3,21.61.75,31.09,32.52,102.46,32.9,110,9.93,91.38,9.93,91.38l19.95-.6L248.39,617l-9-117.09-8.78-29.61Z"/><path class="cls-4" d="M169.21,371.06s4.92,3.45,9.51,3.05,11.08-4.92,11.08-4.92l-.9-3.26s-11.88-1.85-12.18-1.65S169.21,371.06,169.21,371.06Z"/><path class="cls-4" d="M221.66,422.2s17.63,17.76,25.59,14.73,11.26-13.4-8.17-28.56C221.7,394.79,221.66,422.2,221.66,422.2Z"/><path class="cls-1" d="M233.61,444.13C231,428.92,212,381.59,210.48,372.87c-.73-4.24-11-4.34-20.73-3.78-10.31.58-20.54,2-20.54,2s-9.12,1.6-13.14,5.62-5.08,15.11.69,36.18c4.56,16.63,10.2,25.77,13,37.88.56,4.06,1.05,8.07,1.69,12.76,1,18.11,0,42,0,42s49.66,11,68.23-5.68C239.67,499.86,236.29,459.72,233.61,444.13Z"/><path class="cls-2" d="M246.27,411.43s-19.49,17.16-20.62,17.16c-.74,0-27.81-21.25-34.06-38.71-3.45-9.66,3.79-20.46,12.07-20.42,5.74,0,8.29,1.6,19.66,11.83S246.27,411.43,246.27,411.43Z"/><path class="cls-1" d="M543.92,71.1,501.67,99.68a9.37,9.37,0,0,1-13-2.51L460.07,54.92a9.38,9.38,0,0,1,2.51-13l42.25-28.58a9.38,9.38,0,0,1,13,2.51l28.58,42.25A9.37,9.37,0,0,1,543.92,71.1Z"/><path class="cls-3" d="M522.68,41.14a23.91,23.91,0,1,1-33.19-6.4A23.91,23.91,0,0,1,522.68,41.14Z"/><path class="cls-1" d="M495,44.72l9.81,10.69A1.93,1.93,0,0,1,502,58a1.91,1.91,0,0,1-.29-.41Z"/><path class="cls-1" d="M502.47,55.49l14.8-8.28-12.91,11a1.66,1.66,0,0,1-2.15-2.53A1.57,1.57,0,0,1,502.47,55.49Z"/><rect class="cls-2" x="13.98" y="228.95" width="141.41" height="73.56" rx="36.78"/><polygon class="cls-2" points="138.61 274.74 173.44 290.35 150.12 257.71 138.61 274.74"/><path class="cls-3" d="M61.07,263.35c0,3-2.73,5.42-6.1,5.42s-6.1-2.42-6.1-5.42,2.73-5.42,6.1-5.42S61.07,260.36,61.07,263.35Z"/><path class="cls-3" d="M89.45,263.35c0,3-2.73,5.42-6.1,5.42s-6.1-2.42-6.1-5.42,2.73-5.42,6.1-5.42S89.45,260.36,89.45,263.35Z"/><path class="cls-3" d="M117.83,263.35c0,3-2.73,5.42-6.1,5.42s-6.1-2.42-6.1-5.42,2.73-5.42,6.1-5.42S117.83,260.36,117.83,263.35Z"/><polygon class="cls-2" points="446.53 14.47 440.79 2.24 445.56 0 448.81 6.94 456.76 2.13 459.49 6.64 446.53 14.47"/><polygon class="cls-1" points="121.64 190.5 108.91 195.04 107.14 190.08 114.35 187.5 110.33 179.13 115.08 176.85 121.64 190.5"/><path class="cls-2" d="M649.21,67.23c.94,3,1.89,6,2.83,9,.74,2.36,1.29,6.19,3.59,7.52a1.33,1.33,0,0,0,1.81-.47c1.14-2.51-.5-5.73-1.28-8.19q-1.45-4.52-2.89-9c-.82-2.57-4.88-1.48-4.06,1.12Z"/><path class="cls-2" d="M681.11,64c-4.88,16.67-4.93,16.17-4.57,17.87a1.82,1.82,0,0,0,3,.79c1.14-1.18.85-.84,5.57-17.56.73-2.57-3.25-3.66-4-1.1Z"/><path class="cls-2" d="M699.74,101.06l8.63-4.14c2.56-1.22,5.86-2.2,7.61-4.53.77-1-.29-2.36-1.38-2.4-2.84-.08-5.87,2.1-8.36,3.3l-8.6,4.18c-2.42,1.17-.31,4.75,2.1,3.59Z"/><path class="cls-2" d="M690.31,151.13a135.79,135.79,0,0,0,9.25,11.18c1.8,1.87,4.42-.87,2.81-2.8-3.1-3.72-6.28-7.35-9.28-11.16-1.56-2-4.31.81-2.78,2.78Z"/><path class="cls-2" d="M701.17,131.69c2.66,1.17,5.36,2.25,8.07,3.31,2.47,1,5.41,2.7,8.09,2.32,1.42-.2,1.58-2.1.78-3-1-1.1-1.54-1-7.42-3.28-2.65-1-5.29-2.1-8-3.09-2.14-.8-3.69,2.79-1.57,3.72Z"/></g></g></svg>