<svg xmlns="http://www.w3.org/2000/svg" viewBox="0 0 284.34 284.34"><defs><style>.cls-1{fill:#2e186a;}.cls-2{fill:#d6211d;}</style></defs><title>document</title><g id="Warstwa_2" data-name="Warstwa 2"><g id="Layer_1" data-name="Layer 1"><path class="cls-1" d="M217.14,194.37a47.21,47.21,0,1,1,47.21-47.2A47.25,47.25,0,0,1,217.14,194.37Zm0-72.19a25,25,0,1,0,25,25A25,25,0,0,0,217.14,122.18Zm-88.3,151.05a11.11,11.11,0,0,0-11.11-11.11H66.63a44.47,44.47,0,0,1-44.42-44.41V66.63A44.47,44.47,0,0,1,66.63,22.21H168.85a44.47,44.47,0,0,1,44.42,44.42,11.11,11.11,0,1,0,22.21,0A66.71,66.71,0,0,0,168.84,0H66.63A66.71,66.71,0,0,0,0,66.63V217.71a66.71,66.71,0,0,0,66.63,66.63h51.1A11.1,11.1,0,0,0,128.84,273.23Zm18.33-147.17A11.11,11.11,0,0,0,136.06,115H81.64a11.11,11.11,0,1,0,0,22.21h54.42A11.11,11.11,0,0,0,147.17,126.06Zm0,85a11.11,11.11,0,0,0-11.11-11.1H81.64a11.11,11.11,0,1,0,0,22.21h54.42A11.11,11.11,0,0,0,147.17,211Zm0-42.76a11.12,11.12,0,0,0-11.11-11.11H81.64a11.11,11.11,0,1,0,0,22.22h54.42A11.11,11.11,0,0,0,147.17,168.27Z"/><path class="cls-2" d="M273.23,284.34a11.11,11.11,0,0,1-11.11-11.11,39.89,39.89,0,0,0-39.72-40H213a39.89,39.89,0,0,0-39.72,40,11.11,11.11,0,0,1-22.22,0A62.15,62.15,0,0,1,213,211h9.41a62.15,62.15,0,0,1,61.94,62.2A11.1,11.1,0,0,1,273.23,284.34ZM169.38,83.3a11.1,11.1,0,0,0-11.11-11.1H81.64a11.11,11.11,0,1,0,0,22.21h76.63A11.1,11.1,0,0,0,169.38,83.3Z"/></g></g></svg>