<svg xmlns="http://www.w3.org/2000/svg" xmlns:xlink="http://www.w3.org/1999/xlink" viewBox="0 0 425.2 146.82"><defs><style>.cls-1{fill:#231f20;}.cls-2{fill:#2384ba;}.cls-3{fill:#f47826;}.cls-3,.cls-4{fill-rule:evenodd;}.cls-4{fill:url(#linear-gradient);}</style><linearGradient id="linear-gradient" x1="78.11" y1="120.49" x2="78.11" gradientUnits="userSpaceOnUse"><stop offset="0" stop-color="#2384ba"/><stop offset="1" stop-color="#37a0cd"/></linearGradient></defs><title>kongres</title><g id="Warstwa_2" data-name="Warstwa 2"><g id="Layer_1" data-name="Layer 1"><path class="cls-1" d="M169,31h3.61V65.11H169Zm5.14,16.77L189.26,31h4.45L178.56,47.79l16.12,17.32h-4.45Z"/><path class="cls-1" d="M202.77,63.62a15.93,15.93,0,0,1-6.1-6.27,18.93,18.93,0,0,1-2.22-9.26,19,19,0,0,1,2.22-9.27,16.19,16.19,0,0,1,6.07-6.29,17.88,17.88,0,0,1,17.33,0,16,16,0,0,1,6.07,6.29,18.86,18.86,0,0,1,2.23,9.27,18.83,18.83,0,0,1-2.23,9.26,15.84,15.84,0,0,1-6.09,6.27,17.92,17.92,0,0,1-17.28,0Zm15.4-2.95a12.49,12.49,0,0,0,4.82-5,15.57,15.57,0,0,0,1.76-7.58A15.86,15.86,0,0,0,223,40.55a12.57,12.57,0,0,0-4.78-5,13,13,0,0,0-6.74-1.78,13.44,13.44,0,0,0-6.81,1.75,12.62,12.62,0,0,0-4.84,5,15.53,15.53,0,0,0-1.79,7.56,15.58,15.58,0,0,0,1.77,7.58,12.46,12.46,0,0,0,4.81,5,13.88,13.88,0,0,0,13.53,0Z"/><path class="cls-1" d="M233.93,31h3.47l17.84,27.6V31h3.61V65.11h-3.47L237.54,37.45V65.11h-3.61Z"/><path class="cls-1" d="M272.64,63.64a15.4,15.4,0,0,1-6.05-6.21,19.37,19.37,0,0,1-2.18-9.34,19.32,19.32,0,0,1,2.18-9.34,15.54,15.54,0,0,1,6.05-6.24,17.28,17.28,0,0,1,8.78-2.22A16.7,16.7,0,0,1,292.54,34V37.7a15.17,15.17,0,0,0-10.85-4,14.06,14.06,0,0,0-7,1.75,12.39,12.39,0,0,0-4.86,5A15.61,15.61,0,0,0,268,48.09a15.57,15.57,0,0,0,1.76,7.58,12.4,12.4,0,0,0,4.84,5,13.83,13.83,0,0,0,7,1.76,17,17,0,0,0,4.4-.57,11.48,11.48,0,0,0,3.52-1.48V49.89h-6.81V46.67h10.43V62A14.34,14.34,0,0,1,288,64.91a21.41,21.41,0,0,1-6.55.93A17.37,17.37,0,0,1,272.64,63.64Z"/><path class="cls-1" d="M298.7,31h12.51q5.06,0,7.66,2.48t2.62,7.37a9.73,9.73,0,0,1-2.06,6.29,9.2,9.2,0,0,1-5.72,3.27l7.69,14.68h-3.75l-7.6-14.49h-7.74V65.11H298.7Zm12,16.38A7.73,7.73,0,0,0,316,45.75a6.12,6.12,0,0,0,1.9-4.88c0-2.41-.63-4.11-1.88-5.12a8.16,8.16,0,0,0-5.26-1.51h-8.43V47.4Z"/><path class="cls-1" d="M327.05,31H347.9v3.22H330.67V46.43h12.92v3.22H330.67V61.89H347.9v3.22H327.05Z"/><path class="cls-1" d="M356.8,65.35A16.42,16.42,0,0,1,352.54,64V60.43a22.19,22.19,0,0,0,9.36,2c2.78,0,4.82-.48,6.14-1.42a4.88,4.88,0,0,0,2-4.24,5.47,5.47,0,0,0-.81-3.17,6.43,6.43,0,0,0-2.34-2c-1-.53-2.78-1.34-5.28-2.41a18.56,18.56,0,0,1-6.65-4.27,8.52,8.52,0,0,1-2.06-5.88,8.12,8.12,0,0,1,1.32-4.58,8.62,8.62,0,0,1,3.73-3.1,13.33,13.33,0,0,1,5.56-1.09,23.17,23.17,0,0,1,4.61.41A18.06,18.06,0,0,1,372.14,32V35.5A19.25,19.25,0,0,0,364,33.7a9.36,9.36,0,0,0-5.61,1.41,4.67,4.67,0,0,0-1.9,4,5.32,5.32,0,0,0,.79,2.93,7.51,7.51,0,0,0,2.48,2.24,34.9,34.9,0,0,0,4.66,2.25A34.54,34.54,0,0,1,369.63,49a8.52,8.52,0,0,1,2.95,3,9.5,9.5,0,0,1,1,4.71,8.14,8.14,0,0,1-2.92,6.7q-2.93,2.37-8.62,2.37A28.11,28.11,0,0,1,356.8,65.35Z"/><path class="cls-1" d="M169.07,71.51H184q5.83,0,9.29,3.14t3.45,9q0,5.86-3.45,9T184,95.85h-5.32v9.75h-9.6Zm13.12,16.34a5.7,5.7,0,0,0,3.47-.93,3.83,3.83,0,0,0,1.25-3.27,3.77,3.77,0,0,0-1.25-3.22,5.77,5.77,0,0,0-3.47-.92h-3.52v8.34Z"/><path class="cls-1" d="M206,104.09a16.36,16.36,0,0,1-6.3-6.27,19.85,19.85,0,0,1,0-18.51A16.28,16.28,0,0,1,206,73a18,18,0,0,1,8.92-2.24A17.78,17.78,0,0,1,223.82,73a16.35,16.35,0,0,1,6.25,6.29,19.85,19.85,0,0,1,0,18.51,16.44,16.44,0,0,1-6.25,6.27,17.78,17.78,0,0,1-8.88,2.24A18,18,0,0,1,206,104.09Zm12.79-8.22A7.23,7.23,0,0,0,221.57,93a9.09,9.09,0,0,0,1-4.41,8.25,8.25,0,0,0-2.18-6,7.29,7.29,0,0,0-5.47-2.24,7.39,7.39,0,0,0-5.53,2.24,8.19,8.19,0,0,0-2.21,6,9.09,9.09,0,0,0,1,4.41A7.21,7.21,0,0,0,211,95.87a7.83,7.83,0,0,0,3.94,1A7.59,7.59,0,0,0,218.81,95.87Z"/><path class="cls-1" d="M235.14,71.51h9.6v25.6H257.8v8.49H235.14Z"/><path class="cls-1" d="M263.82,105.67a18.26,18.26,0,0,1-5.09-1.73V95a22,22,0,0,0,5.35,2.19,20.77,20.77,0,0,0,5.26.73c2.38,0,3.57-.66,3.57-2a2.11,2.11,0,0,0-.54-1.44,5.71,5.71,0,0,0-1.6-1.17c-.71-.37-1.83-.91-3.38-1.63a18.1,18.1,0,0,1-6.51-4.49,9.17,9.17,0,0,1-2-6,9.41,9.41,0,0,1,1.59-5.39,10.59,10.59,0,0,1,4.48-3.69,15.83,15.83,0,0,1,6.62-1.31,25.8,25.8,0,0,1,5.42.51,19.35,19.35,0,0,1,4.59,1.63v8.64a16.16,16.16,0,0,0-8.25-2.34,6.53,6.53,0,0,0-3,.56,1.75,1.75,0,0,0-1.11,1.63,2,2,0,0,0,1,1.73A27,27,0,0,0,274,85l1,.44a23.77,23.77,0,0,1,5.07,2.8,8.24,8.24,0,0,1,2.57,3.22,11.63,11.63,0,0,1,.79,4.61,9.22,9.22,0,0,1-3.34,7.56q-3.33,2.73-10.05,2.73A30.48,30.48,0,0,1,263.82,105.67Z"/><path class="cls-1" d="M286.25,71.51h9.59V84.73l10-13.22h11.31L304.64,88,318,105.6H306.68L295.84,91.36V105.6h-9.59Z"/><path class="cls-1" d="M320.77,71.51h9.59V105.6h-9.59Z"/><path class="cls-1" d="M334.06,71.51h23.49V80h-13.9v4.69h10v7.75h-10v4.68h13.9v8.49H334.06Z"/><path class="cls-1" d="M366.63,104.18a14.86,14.86,0,0,1-6.2-6.14,19.39,19.39,0,0,1-2.18-9.46,19.59,19.59,0,0,1,2.18-9.49,14.87,14.87,0,0,1,6.2-6.17A19.77,19.77,0,0,1,376,70.78q7.23,0,11.3,2.83v9.31a13.17,13.17,0,0,0-4.58-2.34,21.32,21.32,0,0,0-5.89-.73q-4.35,0-6.6,2.29A8.8,8.8,0,0,0,368,88.58q0,4.33,2.16,6.56a8.29,8.29,0,0,0,6.23,2.22,7.66,7.66,0,0,0,3.24-.59V92.43h-4.44V86h13.2v17.07q-4.91,3.23-12.37,3.22A19.65,19.65,0,0,1,366.63,104.18Z"/><path class="cls-1" d="M398.86,104.09a16.36,16.36,0,0,1-6.3-6.27,19.77,19.77,0,0,1,0-18.51,16.28,16.28,0,0,1,6.3-6.29,18,18,0,0,1,8.92-2.24A17.74,17.74,0,0,1,416.65,73a16.29,16.29,0,0,1,6.25,6.29,19.77,19.77,0,0,1,0,18.51,16.37,16.37,0,0,1-6.25,6.27,17.74,17.74,0,0,1-8.87,2.24A18,18,0,0,1,398.86,104.09Zm12.79-8.22A7.27,7.27,0,0,0,414.4,93a9.09,9.09,0,0,0,1-4.41,8.21,8.21,0,0,0-2.18-6,7.27,7.27,0,0,0-5.46-2.24,7.42,7.42,0,0,0-5.54,2.24,8.18,8.18,0,0,0-2.2,6,9.09,9.09,0,0,0,1,4.41,7.15,7.15,0,0,0,2.78,2.88,7.77,7.77,0,0,0,3.94,1A7.59,7.59,0,0,0,411.65,95.87Z"/><path class="cls-1" d="M169.07,112H186a11.18,11.18,0,0,1,7.57,2.46,9.76,9.76,0,0,1,2,10.9,7.35,7.35,0,0,1-2.48,2.93,7.34,7.34,0,0,1,3.32,2.83,9,9,0,0,1,1,4.58,10.47,10.47,0,0,1-1.44,5.54,9.54,9.54,0,0,1-3.87,3.61,11.78,11.78,0,0,1-5.39,1.24H169.07Zm14.41,13.22a3.45,3.45,0,0,0,2.39-.74,3,3,0,0,0,.81-2.34,2.86,2.86,0,0,0-.79-2.31,3.76,3.76,0,0,0-2.45-.66h-4.77v6Zm.56,13.7a4.3,4.3,0,0,0,2.78-.73,3.18,3.18,0,0,0,.88-2.54,3.34,3.34,0,0,0-.9-2.58,4.11,4.11,0,0,0-2.85-.83h-5.28v6.68Z"/><path class="cls-1" d="M200.21,112h9.59v34.09h-9.59Z"/><path class="cls-1" d="M212.58,139.46l13.53-19H212.9V112H238v6.68L224.49,137.6H239v8.49H212.58Z"/><path class="cls-1" d="M240.2,112h9.31l10.1,17.85V112h9.59v34.09h-9.27l-10.14-17.85v17.85H240.2Z"/><path class="cls-1" d="M272.91,112h23.48v8.49h-13.9v4.68h10v7.75h-10v4.68h13.9v8.49H272.91Z"/><path class="cls-1" d="M302.88,146.16a18.26,18.26,0,0,1-5.09-1.73v-8.92a21.84,21.84,0,0,0,5.35,2.19,20.71,20.71,0,0,0,5.26.73c2.37,0,3.56-.66,3.56-2a2.15,2.15,0,0,0-.53-1.44,5.71,5.71,0,0,0-1.6-1.17c-.71-.37-1.84-.92-3.38-1.63a18,18,0,0,1-6.51-4.49,9.18,9.18,0,0,1-2-6,9.42,9.42,0,0,1,1.6-5.39,10.62,10.62,0,0,1,4.47-3.69,15.91,15.91,0,0,1,6.63-1.31,25.8,25.8,0,0,1,5.42.51,19.5,19.5,0,0,1,4.59,1.63v8.64a16.27,16.27,0,0,0-8.25-2.35,6.5,6.5,0,0,0-3,.57,1.75,1.75,0,0,0-1.12,1.63,2,2,0,0,0,1,1.73,26.12,26.12,0,0,0,3.77,1.83l1,.44a23.63,23.63,0,0,1,5.08,2.8,8.24,8.24,0,0,1,2.57,3.22,11.81,11.81,0,0,1,.79,4.61,9.25,9.25,0,0,1-3.34,7.56c-2.22,1.82-5.58,2.73-10.05,2.73A30.48,30.48,0,0,1,302.88,146.16Z"/><path class="cls-1" d="M331.75,144.82a12.35,12.35,0,0,1-5-5.51,18.7,18.7,0,0,1-1.65-8.05V112h9.6v19.17a7,7,0,0,0,1.41,4.73,6.17,6.17,0,0,0,8.29,0,7,7,0,0,0,1.42-4.73V112h9.59v19.26a18.7,18.7,0,0,1-1.65,8.05,12.33,12.33,0,0,1-5,5.51,19,19,0,0,1-17,0Z"/><polyline class="cls-2" points="120.61 124.48 125.86 120.49 102.94 111.52 104.2 126.69 106.93 132.93 96.29 143.96 107.63 145.9 117.19 141.58 117.14 133.15"/><polyline class="cls-3" points="45.35 60.68 42.17 58.45 17.55 66.36 0 61.03 18.02 60.66 41.12 49.25 53.34 50.54"/><path class="cls-4" d="M144.1,99.45l-11.68,3.68-18-7.18,13.39-6.37L147.92,0,75.57,18.81,56.92,50,47.65,62.29l-23.4,20.3L3.52,86.08l21.32,1.84,25.8-13.07L52,81.19,66.27,97.28l6.49,10.49v7l2.25,1,6.36-1.37L92,108l.25-13.11,1.29-6.43,17.15-19,.92,7.33L96.13,94.11l6.53,14,26.14,10.2,5.07-1.6,18.84,3.83ZM61.27,80.39l-3.53-4.81,11.52-11.8.36,11.36Z"/></g></g></svg>