<svg xmlns="http://www.w3.org/2000/svg" viewBox="0 0 106.12 103.12"><defs><style>.cls-1{fill:#2e186a;}.cls-2{fill:#fff;}</style></defs><title>lamp</title><g id="Warstwa_2" data-name="Warstwa 2"><g id="Layer_1" data-name="Layer 1"><path class="cls-1" d="M73.72,44.65c13.85,21.15-5,50.51-29.63,46.15a18.65,18.65,0,0,0-13,2.67l-13.63,8.4a7.86,7.86,0,0,1-10.84-2.3l-5.24-8A8.91,8.91,0,0,1,3.16,80C15.48,69.47,20.73,66.47,22.38,57.62,27.23,31.73,59.88,23.49,73.72,44.65Z"/><path class="cls-2" d="M41.22,56.29a25.2,25.2,0,0,1-.65-3.73c-.63-7.39,5.09-10,8.1-8,1.93,1.22,2.71,4,1.6,6.73-1,2.41-3.15,4.15-5.34,6.07a35.71,35.71,0,0,0,5.48,11.26c6.74-4.06,11.56-1.84,11.87,1.83a6,6,0,0,1-3.6,5.79c-1.36.59-4.89,1.41-9.07-3.21C38.23,81,23.39,92.87,23.34,92.9l-1.89-2.62c.05,0,14.81-11.81,26.15-19.83a38.66,38.66,0,0,1-5.43-10.72C29.21,71.05,17.78,80,17.38,80.32L15.5,77.7C16.33,77,27.4,68.4,41.22,56.29Zm5.46-9c-1-.38-3.67.72-2.6,6.49C47.09,51.14,48,50,46.68,47.28Zm5.81,23.84c1.65,1.72,4.16,3.28,5.84,1.41C60.49,70.15,57.4,68.36,52.49,71.12Z"/><path class="cls-1" d="M31.43,93.28l-.35.19-13.63,8.4a7.86,7.86,0,0,1-10.84-2.3l-5.24-8A8.91,8.91,0,0,1,3.16,80c5.48-4.7,9.56-7.9,12.55-10.78Z"/><path class="cls-1" d="M36.74,4.72c.94,3,1.89,6,2.83,9.05.74,2.36,1.29,6.18,3.59,7.52A1.33,1.33,0,0,0,45,20.82c1.14-2.51-.5-5.73-1.28-8.19-1-3-1.93-6-2.89-9C40,1,35.92,2.12,36.74,4.72Z"/><path class="cls-1" d="M68.64,1.46c-4.88,16.67-4.93,16.16-4.57,17.86a1.81,1.81,0,0,0,3,.79c1.14-1.17.85-.83,5.57-17.55.73-2.57-3.25-3.66-4-1.1Z"/><path class="cls-1" d="M87.27,38.55l8.63-4.14c2.56-1.23,5.86-2.2,7.61-4.53.77-1-.29-2.37-1.38-2.4-2.84-.08-5.87,2.09-8.35,3.3L85.17,35c-2.42,1.17-.31,4.74,2.1,3.59Z"/><path class="cls-1" d="M77.84,88.62A137.48,137.48,0,0,0,87.09,99.8c1.8,1.87,4.42-.87,2.81-2.81-3.1-3.71-6.28-7.34-9.27-11.15-1.57-2-4.31.8-2.79,2.78Z"/><path class="cls-1" d="M88.7,69.18c2.66,1.17,5.36,2.25,8.07,3.31,2.47,1,5.41,2.7,8.09,2.32,1.42-.2,1.58-2.1.78-3-1-1.1-1.54-1-7.42-3.28-2.65-1-5.29-2.1-8-3.1-2.14-.8-3.69,2.8-1.57,3.73Z"/></g></g></svg>