<svg xmlns="http://www.w3.org/2000/svg" viewBox="0 0 339.34 128.15"><defs><style>.cls-1{fill:#37a0cd;}.cls-2{fill:#f47826;}</style></defs><title>logo</title><g id="Warstwa_2" data-name="Warstwa 2"><g id="Warstwa_4" data-name="Warstwa 4"><g id="Warstwa_5" data-name="Warstwa 5"><path class="cls-1" d="M12.17,99.54H1.24a5.87,5.87,0,0,1-.57-1.33A5.81,5.81,0,0,1,.4,96.43a3.38,3.38,0,0,1,.78-2.49,2.79,2.79,0,0,1,2-.75H19.77a5.24,5.24,0,0,1,2,4.26,5.14,5.14,0,0,1-.52,2.2,9.48,9.48,0,0,1-1.31,2.07L9.82,113.89H21.19A6.25,6.25,0,0,1,22,117a3.35,3.35,0,0,1-.78,2.49,2.79,2.79,0,0,1-2,.75H1.73a4.55,4.55,0,0,1-1.24-1.68A5.79,5.79,0,0,1,0,116.11a5,5,0,0,1,.58-2.26A11.17,11.17,0,0,1,2,111.71Z"/><path class="cls-1" d="M34.57,98a18.57,18.57,0,0,1,4.37.48A10.06,10.06,0,0,1,42.32,100a6.69,6.69,0,0,1,2.15,2.54,8,8,0,0,1,.76,3.62v9.95a2.76,2.76,0,0,1-.65,1.89,6.52,6.52,0,0,1-1.53,1.26c-1.92,1.16-4.63,1.73-8.13,1.73a18.35,18.35,0,0,1-4.24-.44,10.31,10.31,0,0,1-3.25-1.33,6.11,6.11,0,0,1-2.08-2.27,6.69,6.69,0,0,1-.74-3.2A6,6,0,0,1,26.43,109a9.93,9.93,0,0,1,5.65-2l5.82-.62V106a1.91,1.91,0,0,0-1.14-1.85,7.6,7.6,0,0,0-3.26-.55,15.57,15.57,0,0,0-3.29.35,18.26,18.26,0,0,0-2.89.89,3,3,0,0,1-1-1.22,3.83,3.83,0,0,1-.4-1.71,2.84,2.84,0,0,1,.55-1.84,4.23,4.23,0,0,1,1.71-1.18,13.18,13.18,0,0,1,3.05-.71A26,26,0,0,1,34.57,98Zm.35,17.46a10.52,10.52,0,0,0,1.67-.16,4,4,0,0,0,1.35-.42v-3.56l-3.2.27a5,5,0,0,0-2,.53,1.45,1.45,0,0,0-.8,1.34,1.76,1.76,0,0,0,.69,1.44A3.75,3.75,0,0,0,34.92,115.45Z"/><path class="cls-1" d="M59.76,98a17.47,17.47,0,0,1,4.95.68,10.78,10.78,0,0,1,3.93,2.11,9.73,9.73,0,0,1,2.58,3.58,12.91,12.91,0,0,1,.93,5.13,14.21,14.21,0,0,1-.8,5A9.74,9.74,0,0,1,69.09,118a9.14,9.14,0,0,1-3.54,2.16,14.14,14.14,0,0,1-4.6.71,10.53,10.53,0,0,1-3.55-.58v7.38A13.44,13.44,0,0,1,56,128a13.17,13.17,0,0,1-2,.15,10.24,10.24,0,0,1-1.75-.13,3.14,3.14,0,0,1-1.32-.53,2.49,2.49,0,0,1-.8-1.09,5.28,5.28,0,0,1-.26-1.8V103.27a3.4,3.4,0,0,1,.51-2,5.41,5.41,0,0,1,1.4-1.38,11.74,11.74,0,0,1,3.42-1.42A18,18,0,0,1,59.76,98Zm.08,17q4.57,0,4.58-5.47a6.61,6.61,0,0,0-1.13-4.22A4,4,0,0,0,60,103.89a5.41,5.41,0,0,0-1.51.2,6.24,6.24,0,0,0-1.15.47v9.78a7.43,7.43,0,0,0,1.15.44A4.8,4.8,0,0,0,59.84,115Z"/><path class="cls-1" d="M78.64,114.73c-.33-.74-.68-1.56-1-2.48s-.75-2-1.15-3.16-.82-2.54-1.25-4.06-.88-3.28-1.35-5.27a5.68,5.68,0,0,1,1.67-1.09,5.5,5.5,0,0,1,2.28-.46,4.75,4.75,0,0,1,2.58.64,4,4,0,0,1,1.51,2.42l3.51,12.22h.18c.35-1,.7-2.1,1-3.29s.68-2.4,1-3.66.63-2.52.91-3.78.53-2.49.74-3.71a7.4,7.4,0,0,1,3.51-.84,4.65,4.65,0,0,1,2.57.66,2.56,2.56,0,0,1,1,2.31,14.37,14.37,0,0,1-.31,2.78c-.2,1.05-.48,2.17-.82,3.36s-.74,2.4-1.2,3.66-.94,2.5-1.44,3.71-1,2.36-1.56,3.44-1,2.05-1.55,2.91a31.74,31.74,0,0,1-2.31,3.56,12.23,12.23,0,0,1-2,2.15,5.74,5.74,0,0,1-2,1.07,7.24,7.24,0,0,1-2,.29,4.19,4.19,0,0,1-3-1.11,4.69,4.69,0,0,1-1.37-2.89c.94-.74,1.89-1.56,2.84-2.47a30.06,30.06,0,0,0,2.58-2.77,4.11,4.11,0,0,1-1.62-1.05A10.13,10.13,0,0,1,78.64,114.73Z"/><path class="cls-1" d="M107.29,112.82a1.85,1.85,0,0,0,.74,1.65,3.71,3.71,0,0,0,2.06.49,9.49,9.49,0,0,0,1.38-.11,8.14,8.14,0,0,0,1.24-.29,5,5,0,0,1,.69,1.09,3.33,3.33,0,0,1,.29,1.44,3.4,3.4,0,0,1-1.27,2.75c-.84.71-2.33,1.07-4.46,1.07a9.07,9.07,0,0,1-6-1.78c-1.41-1.18-2.11-3.11-2.11-5.77v-19c.32-.09.79-.18,1.4-.29a11.9,11.9,0,0,1,1.93-.15,5.66,5.66,0,0,1,3,.69c.73.46,1.09,1.43,1.09,2.91v2.84h5.82a7.24,7.24,0,0,1,.51,1.22,4.92,4.92,0,0,1,.25,1.62,3.09,3.09,0,0,1-.69,2.25,2.48,2.48,0,0,1-1.84.69h-4Z"/><path class="cls-1" d="M126.4,98a18.51,18.51,0,0,1,4.37.48,10,10,0,0,1,3.38,1.49,6.69,6.69,0,0,1,2.15,2.54,8,8,0,0,1,.76,3.62v9.95a2.81,2.81,0,0,1-.64,1.89,6.57,6.57,0,0,1-1.54,1.26c-1.92,1.16-4.63,1.73-8.13,1.73a18.35,18.35,0,0,1-4.24-.44,10.15,10.15,0,0,1-3.24-1.33,6.06,6.06,0,0,1-2.09-2.27,6.69,6.69,0,0,1-.74-3.2,6,6,0,0,1,1.83-4.71,9.86,9.86,0,0,1,5.64-2l5.82-.62V106a1.92,1.92,0,0,0-1.13-1.85,7.68,7.68,0,0,0-3.27-.55A15.57,15.57,0,0,0,122,104a18.59,18.59,0,0,0-2.89.89,3,3,0,0,1-1-1.22,3.83,3.83,0,0,1-.4-1.71,2.84,2.84,0,0,1,.55-1.84A4.23,4.23,0,0,1,120,98.92a13.3,13.3,0,0,1,3-.71A26,26,0,0,1,126.4,98Zm.35,17.46a10.42,10.42,0,0,0,1.67-.16,3.91,3.91,0,0,0,1.35-.42v-3.56l-3.2.27a5,5,0,0,0-2,.53,1.45,1.45,0,0,0-.8,1.34,1.76,1.76,0,0,0,.69,1.44A3.77,3.77,0,0,0,126.75,115.45Z"/><path class="cls-1" d="M140.21,123.27a3.66,3.66,0,0,0,1.43-1.72,6.44,6.44,0,0,0,.44-2.42V99l1.44-.24a12.49,12.49,0,0,1,1.94-.16,10.26,10.26,0,0,1,1.75.14,2.92,2.92,0,0,1,1.31.53,2.53,2.53,0,0,1,.82,1.09,4.58,4.58,0,0,1,.29,1.8v17.72a12.19,12.19,0,0,1-.44,3.38,8.09,8.09,0,0,1-1.27,2.6,5.62,5.62,0,0,1-4.64,2.29,4,4,0,0,1-3.07-1.18,4.29,4.29,0,0,1-1.15-3Z"/><path class="cls-2" d="M162.65,109.54c-1.3-.45-2.49-.9-3.56-1.36a11.05,11.05,0,0,1-2.75-1.66,7,7,0,0,1-1.8-2.34,7.63,7.63,0,0,1-.64-3.31,7.28,7.28,0,0,1,2.91-6c1.94-1.51,4.65-2.26,8.15-2.26a21.93,21.93,0,0,1,3.55.26,10.58,10.58,0,0,1,2.82.82,4.93,4.93,0,0,1,1.85,1.43,3.22,3.22,0,0,1,.66,2,3.47,3.47,0,0,1-.53,2,5.23,5.23,0,0,1-1.29,1.4,10.09,10.09,0,0,0-2.62-1.08,12.75,12.75,0,0,0-3.6-.47,5.94,5.94,0,0,0-2.93.55,1.62,1.62,0,0,0-.93,1.4,1.28,1.28,0,0,0,.58,1.09,6,6,0,0,0,1.73.78l2.35.75a17.08,17.08,0,0,1,6.42,3.4,7.26,7.26,0,0,1,2.25,5.62,7.4,7.4,0,0,1-3,6.11c-2,1.56-4.9,2.33-8.75,2.33a20.53,20.53,0,0,1-3.8-.33,12,12,0,0,1-3.07-1,5.56,5.56,0,0,1-2-1.6,3.46,3.46,0,0,1-.73-2.19,3.33,3.33,0,0,1,.75-2.2,5.63,5.63,0,0,1,1.65-1.4,11.81,11.81,0,0,0,3,1.68,10.49,10.49,0,0,0,3.93.72,5.34,5.34,0,0,0,3.07-.67,1.92,1.92,0,0,0,.89-1.56,1.51,1.51,0,0,0-.72-1.35,9.45,9.45,0,0,0-2-.91Z"/><path class="cls-2" d="M188.24,98a18.6,18.6,0,0,1,4.38.48A10,10,0,0,1,196,100a6.8,6.8,0,0,1,2.16,2.54,8.12,8.12,0,0,1,.75,3.62v9.95a2.76,2.76,0,0,1-.64,1.89,6.37,6.37,0,0,1-1.54,1.26c-1.92,1.16-4.63,1.73-8.13,1.73a18.35,18.35,0,0,1-4.24-.44,10.15,10.15,0,0,1-3.24-1.33,6.06,6.06,0,0,1-2.09-2.27,6.69,6.69,0,0,1-.73-3.2,6,6,0,0,1,1.82-4.71,9.86,9.86,0,0,1,5.64-2l5.82-.62V106a1.92,1.92,0,0,0-1.13-1.85,7.68,7.68,0,0,0-3.27-.55,15.47,15.47,0,0,0-3.28.35,18.26,18.26,0,0,0-2.89.89,3,3,0,0,1-1-1.22,3.83,3.83,0,0,1-.4-1.71,2.79,2.79,0,0,1,.56-1.84,4.16,4.16,0,0,1,1.71-1.18,13.09,13.09,0,0,1,3-.71A26,26,0,0,1,188.24,98Zm.35,17.46a10.42,10.42,0,0,0,1.67-.16,4,4,0,0,0,1.36-.42v-3.56l-3.2.27a5.09,5.09,0,0,0-2,.53,1.45,1.45,0,0,0-.8,1.34,1.76,1.76,0,0,0,.69,1.44A3.77,3.77,0,0,0,188.59,115.45Z"/><path class="cls-2" d="M217.21,106.56a2.47,2.47,0,0,0-.78-2,3.21,3.21,0,0,0-2.11-.65,7,7,0,0,0-1.76.23,4.72,4.72,0,0,0-1.49.66V120.2a10,10,0,0,1-1.39.27,15.93,15.93,0,0,1-2,.13,11.6,11.6,0,0,1-1.76-.13,3,3,0,0,1-1.31-.54,2.54,2.54,0,0,1-.82-1.09,4.68,4.68,0,0,1-.29-1.79V103.72a3.46,3.46,0,0,1,.51-2,5.57,5.57,0,0,1,1.4-1.38,12.88,12.88,0,0,1,3.8-1.73,18.35,18.35,0,0,1,5.09-.66q5,0,7.73,2.19a7.47,7.47,0,0,1,2.71,6.11V120.2a10.21,10.21,0,0,1-1.4.27,15.93,15.93,0,0,1-2,.13,11.37,11.37,0,0,1-1.75-.13,2.93,2.93,0,0,1-1.31-.54,2.56,2.56,0,0,1-.83-1.09,4.7,4.7,0,0,1-.28-1.79Z"/><path class="cls-2" d="M240.84,121a15.47,15.47,0,0,1-4.86-.73,11,11,0,0,1-3.91-2.2,10,10,0,0,1-2.62-3.68,13.08,13.08,0,0,1-1-5.2,12.13,12.13,0,0,1,1-5,9.85,9.85,0,0,1,2.51-3.46,10,10,0,0,1,3.55-2A13.19,13.19,0,0,1,239.6,98a12.13,12.13,0,0,1,4.28.71,10.32,10.32,0,0,1,3.34,2,8.59,8.59,0,0,1,2.17,3,9.05,9.05,0,0,1,.78,3.77,3,3,0,0,1-.84,2.31,4.22,4.22,0,0,1-2.36,1l-11,1.64a3.66,3.66,0,0,0,2,2.2,7.79,7.79,0,0,0,3.46.73,12.5,12.5,0,0,0,3.45-.46,11.49,11.49,0,0,0,2.64-1.09,3.76,3.76,0,0,1,1.2,1.24,3.25,3.25,0,0,1,.49,1.69,3.17,3.17,0,0,1-1.87,3,10,10,0,0,1-3.2,1A22.07,22.07,0,0,1,240.84,121Zm-1.24-17.46a4.39,4.39,0,0,0-1.85.36,3.65,3.65,0,0,0-1.26.91,3.93,3.93,0,0,0-.74,1.24,4.91,4.91,0,0,0-.28,1.4l7.59-1.24a3.41,3.41,0,0,0-1-1.78A3.31,3.31,0,0,0,239.6,103.49Z"/><path class="cls-2" d="M263.72,98a17.49,17.49,0,0,1,5,.68,10.78,10.78,0,0,1,3.93,2.11,9.82,9.82,0,0,1,2.57,3.58,12.74,12.74,0,0,1,.94,5.13,14.21,14.21,0,0,1-.8,5,9.76,9.76,0,0,1-2.27,3.57,9.1,9.1,0,0,1-3.53,2.16,14.19,14.19,0,0,1-4.6.71,10.49,10.49,0,0,1-3.55-.58v7.38A13.44,13.44,0,0,1,260,128a13.27,13.27,0,0,1-2,.15,10.36,10.36,0,0,1-1.76-.13,3.09,3.09,0,0,1-1.31-.53,2.49,2.49,0,0,1-.8-1.09,5,5,0,0,1-.27-1.8V103.27a3.4,3.4,0,0,1,.51-2,5.57,5.57,0,0,1,1.4-1.38,11.69,11.69,0,0,1,3.43-1.42A17.87,17.87,0,0,1,263.72,98Zm.09,17q4.57,0,4.58-5.47a6.54,6.54,0,0,0-1.14-4.22,4,4,0,0,0-3.26-1.38,5.31,5.31,0,0,0-1.51.2,6.35,6.35,0,0,0-1.16.47v9.78a7.55,7.55,0,0,0,1.16.44A4.75,4.75,0,0,0,263.81,115Z"/><path class="cls-2" d="M279.63,92.65a3.88,3.88,0,0,1,1.13-2.84,4.49,4.49,0,0,1,6,0,4.15,4.15,0,0,1,0,5.69,4.49,4.49,0,0,1-6,0A3.89,3.89,0,0,1,279.63,92.65Zm7.9,27.55-1.44.24a11.34,11.34,0,0,1-1.93.16,11.6,11.6,0,0,1-1.76-.13,3,3,0,0,1-1.31-.54,2.54,2.54,0,0,1-.82-1.09,4.68,4.68,0,0,1-.29-1.79V99l1.45-.24a12.36,12.36,0,0,1,1.93-.16,10.26,10.26,0,0,1,1.75.14,2.92,2.92,0,0,1,1.31.53,2.62,2.62,0,0,1,.83,1.09,4.79,4.79,0,0,1,.28,1.8Z"/><path class="cls-2" d="M291.4,109.45a13.16,13.16,0,0,1,.89-5.09,9.7,9.7,0,0,1,2.46-3.58,10.23,10.23,0,0,1,3.69-2.11A14.92,14.92,0,0,1,303,98a9.94,9.94,0,0,1,1.73.15,7.06,7.06,0,0,1,1.37.38v-7.2a13.21,13.21,0,0,1,1.43-.29,13.07,13.07,0,0,1,2-.15,10.32,10.32,0,0,1,1.75.13,3,3,0,0,1,1.31.53,2.41,2.41,0,0,1,.8,1.09,5,5,0,0,1,.27,1.8v21.06a3.78,3.78,0,0,1-2,3.33,13.34,13.34,0,0,1-3.33,1.49,15.65,15.65,0,0,1-4.71.64,15.42,15.42,0,0,1-5.17-.8,10.4,10.4,0,0,1-3.87-2.31,9.89,9.89,0,0,1-2.4-3.62A13,13,0,0,1,291.4,109.45ZM304,103.89a4.8,4.8,0,0,0-3.69,1.38,5.93,5.93,0,0,0-1.29,4.18,6.23,6.23,0,0,0,1.2,4.15,4.33,4.33,0,0,0,3.47,1.4,4.1,4.1,0,0,0,1.44-.24,3.42,3.42,0,0,0,1-.56v-9.77A4,4,0,0,0,304,103.89Z"/><path d="M316.55,118.44a2.2,2.2,0,0,1,.57-1.55,2.32,2.32,0,0,1,3.16,0,2.37,2.37,0,0,1,0,3.11,2.32,2.32,0,0,1-3.16,0A2.21,2.21,0,0,1,316.55,118.44Z"/><path d="M327.45,109.11a8.54,8.54,0,0,1,2.48.35,5.4,5.4,0,0,1,2,1.05,5,5,0,0,1,1.28,1.79,6.48,6.48,0,0,1,.47,2.57,7,7,0,0,1-.4,2.49,4.85,4.85,0,0,1-1.13,1.78,4.45,4.45,0,0,1-1.77,1.08,6.94,6.94,0,0,1-2.3.36,5.34,5.34,0,0,1-1.77-.29V124a7.07,7.07,0,0,1-.72.14,6.43,6.43,0,0,1-1,.08,4.65,4.65,0,0,1-.87-.07,1.4,1.4,0,0,1-.66-.27,1.17,1.17,0,0,1-.4-.54,2.52,2.52,0,0,1-.13-.9V111.76a1.72,1.72,0,0,1,.25-1,2.87,2.87,0,0,1,.7-.69,6.15,6.15,0,0,1,1.71-.71A9,9,0,0,1,327.45,109.11Zm.05,8.49c1.52,0,2.29-.91,2.29-2.73a3.26,3.26,0,0,0-.57-2.11,2,2,0,0,0-1.63-.69,2.5,2.5,0,0,0-.76.1,3.5,3.5,0,0,0-.58.23v4.89a3.32,3.32,0,0,0,.58.22A2.41,2.41,0,0,0,327.5,117.6Z"/><path d="M339.34,120.22l-.73.12a5.11,5.11,0,0,1-1,.08,5.8,5.8,0,0,1-.88-.06,1.54,1.54,0,0,1-.65-.27,1.31,1.31,0,0,1-.42-.55,2.46,2.46,0,0,1-.14-.9V105.76l.72-.12a6.24,6.24,0,0,1,1-.08,4.76,4.76,0,0,1,.88.07,1.51,1.51,0,0,1,.65.26,1.27,1.27,0,0,1,.41.55,2.28,2.28,0,0,1,.15.9Z"/><g id="Smartphone"><path fill="#231f20" d="M190.37,0a45.94,45.94,0,0,0-45.82,45.83,43.75,43.75,0,0,0,1.37,11,43.7,43.7,0,0,1-3.28,29.92,5.09,5.09,0,0,0,6.8,6.84,43.54,43.54,0,0,1,29.88-3.31,44.2,44.2,0,0,0,11.05,1.39,45.83,45.83,0,1,0,0-91.65Zm0,71.28a5.09,5.09,0,1,1,5.09-5.09A5.09,5.09,0,0,1,190.37,71.28ZM195.53,50c0,2.81-2.31,5.53-5.12,5.53s-5.13-1.83-5.13-4.64c0-5.14,2.74-9,6.81-10.48a5.09,5.09,0,1,0-6.81-4.8,5.09,5.09,0,0,1-10.18,0A15.28,15.28,0,1,1,195.53,50Z"/></g></g></g></g></svg>