<svg xmlns="http://www.w3.org/2000/svg" viewBox="0 0 284.34 284.34"><defs><style>.cls-1{fill:#2e186a;}.cls-2{fill:#d6211d;}</style></defs><title>message</title><g id="Warstwa_2" data-name="Warstwa 2"><g id="Layer_1" data-name="Layer 1"><path class="cls-1" d="M217.7,239.91H66.63A66.71,66.71,0,0,1,0,173.28V82.19A66.72,66.72,0,0,1,66.64,15.55h50a11.11,11.11,0,1,1,0,22.21h-50A44.48,44.48,0,0,0,22.21,82.19v91.09A44.47,44.47,0,0,0,66.63,217.7H217.7a44.48,44.48,0,0,0,44.42-44.43v-15a11.11,11.11,0,0,1,22.22,0v15A66.72,66.72,0,0,1,217.7,239.91Zm-11.11,33.32a11.11,11.11,0,0,0-11.11-11.11H88.86a11.11,11.11,0,0,0,0,22.22H195.48A11.1,11.1,0,0,0,206.59,273.23Z"/><path class="cls-2" d="M148.83,146.61a11.08,11.08,0,0,1-11.1-11.11V74a73.28,73.28,0,1,1,73.06,72.64h-.08A72.48,72.48,0,0,1,178.14,139a17.72,17.72,0,0,0-20.45,3.36l-1,1A11.14,11.14,0,0,1,148.83,146.61Zm21.42-31.69A39.84,39.84,0,0,1,188,119.11a50.41,50.41,0,0,0,22.69,5.29h0a51.37,51.37,0,0,0,51.35-50.59,51.09,51.09,0,1,0-102.18,0v42.47a39.87,39.87,0,0,1,10.31-1.36Z"/></g></g></svg>