<svg xmlns="http://www.w3.org/2000/svg" viewBox="0 0 218.81 284.34"><defs><style>.cls-1{fill:#d6211d;}.cls-2{fill:#2e186a;}</style></defs><title>person</title><g id="Warstwa_2" data-name="Warstwa 2"><g id="Layer_1" data-name="Layer 1"><path class="cls-1" d="M207.7,284.34a11.11,11.11,0,0,1-11.11-11.11,79,79,0,0,0-78.86-78.86H101.07a79,79,0,0,0-78.86,78.86,11.11,11.11,0,1,1-22.21,0A101.18,101.18,0,0,1,101.07,172.16h16.66A101.19,101.19,0,0,1,218.81,273.23,11.11,11.11,0,0,1,207.7,284.34Z"/><path class="cls-2" d="M108.29,149.94a75,75,0,1,1,75-75A75.05,75.05,0,0,1,108.29,149.94Zm0-127.73A52.76,52.76,0,1,0,161.05,75,52.82,52.82,0,0,0,108.29,22.21Z"/></g></g></svg>