<svg xmlns="http://www.w3.org/2000/svg" viewBox="0 0 334.51 253.2"><defs><style>.cls-1{fill:#2b2b2b;}</style></defs><title>splash-top-right</title><g id="Warstwa_2" data-name="Warstwa 2"><g id="Layer_1" data-name="Layer 1"><path class="cls-1" d="M324.57,83.2A51,51,0,0,0,334.36,49c-2-26.33-24.6-47.49-52.23-48.93A57.19,57.19,0,0,0,245.5,10.75l-.1-.09A271.72,271.72,0,0,1,99.65,52.78h-12V53C38.14,53-1.81,92.18.06,139.87c1.65,41.94,36.28,76.62,80.1,80.16a93,93,0,0,0,17.21-.21,214.19,214.19,0,0,1,37.72-1.06,220.14,220.14,0,0,1,86,24.44,67.82,67.82,0,0,0,35.63,10c36.36,0,65.83-28.13,65.83-62.83v-.17h0a60.27,60.27,0,0,0-7.05-28.13c-7.57-14.28-10.3-30.54-6.41-46.11A94.37,94.37,0,0,1,324.57,83.2Z"/></g></g></svg>