<svg xmlns="http://www.w3.org/2000/svg" viewBox="0 0 589.54 1332.81"><defs><style>.cls-1{fill:#0b0754;}.cls-2{fill:#fb9390;}.cls-3{fill:#2e186a;}.cls-4{fill:#201251;}.cls-5{fill:#f8caa4;}.cls-6{fill:#d6211d;}.cls-7{fill:#fff;}.cls-8{fill:#ef7f7f;}.cls-9{fill:#ffae73;}</style></defs><title>woman</title><g id="Warstwa_2" data-name="Warstwa 2"><g id="Warstwa_6" data-name="Warstwa 6"><path class="cls-1" d="M383.61,7.49c-25.5-13.23-45.94-4.91-45.94-4.91-78.05-9.17-100.81,81.85-99.75,113.17s4.63,64.95-30.23,105.64C107,338.91,317.87,344.1,317.87,344.1c1.78-93.9,114.34-59.64,109.4-50.13C571.56,328.6,441.62,37.59,383.61,7.49Z"/><path class="cls-2" d="M82.56,380.16s-13.72-20.89-24.79-21.3-31.54-6.15-29.9-2.05,14.34,4.5,15.57,7-18.85,6.15-24.59,6.56S-.4,370.33,0,373.2s24.37,14.74,41.27,13.11,37.8,4.91,37.8,4.91Z"/><path class="cls-3" d="M281.05,386.92a206.09,206.09,0,0,1-21,31.75c-16.31,20.42-41.46,44-73,48.68-15.08,2.22-29.83-1-43.39-7l0,0c-38.34-17-67.18-56.16-67.18-56.16-6.76-18.44,4.31-30.94,4.31-30.94s77.43,17.42,84.8,13.73,52.71-104.27,60.88-121c17.36-35.61,44.9-45.82,44.9-45.82Z"/><path class="cls-4" d="M260.06,418.67c-16.31,20.42-41.46,44-73,48.68-15.08,2.22-29.83-1-43.39-7,1.5.19,39.8,4.93,55.06-22.39,15.58-27.86,32.41-72.1,55.54-57.35C264.22,386.93,263.78,402.75,260.06,418.67Z"/><path class="cls-3" d="M472.07,325.31a528.28,528.28,0,0,1,0,61.36c-1.32,22.18-23.76,51.89-26.94,59.24-8,18.44-17,21.44-17,21.44l-69.7,17.08-24.51,6-77.28-23.08s-35.2-98.25-21.06-153.56,35.72-93.71,35.72-93.71,52.4-20.68,145.18-5.24Z"/><path class="cls-5" d="M451.67,395.72c-1.32,22.18-3.36,42.84-6.54,50.19-8,18.44-17,21.44-17,21.44l-69.7,17.08-30.27-8.9s101-15.31,89.85-102.25Z"/><path class="cls-1" d="M333,1272.67c-3.73,1-8.36.41-13.17-1.11-9.89,23.68-43.45,34.63-63.2,37.78-21.32,3.41-21.32,18.73-21.32,18.73l132.75.27c6.12-3,5.67-36.1,4.27-62.69h0C370.32,1267.41,349.41,1268,333,1272.67Z"/><path class="cls-4" d="M375,1220.2c6.8-97.43,23.85-372.16,8.81-483.48-18.43-136.46-18.65-254.46-18.65-254.46H261.56S223.28,601.39,220.83,642s79.28,549.52,84.68,567.67c8.25,27.67,69.44,10.58,69.44,10.58Z"/><path class="cls-2" d="M321.77,1265.65s10.06,5.94,24.42,1.88c16.39-4.63,23.56-10,25.58-11.77-.87-13.72-1.82-23.87-1.82-23.87S328.11,1237.85,321.77,1265.65Z"/><path class="cls-2" d="M375,1220.2c-1.53,22-2.54,35-2.54,35a7.29,7.29,0,0,1-.64.59c.2,3.14.4,6.46.58,9.89C375.53,1250.1,375,1220.21,375,1220.2Z"/><path class="cls-2" d="M346.19,1267.53c-14.36,4.06-24.42-1.88-24.42-1.88a36.13,36.13,0,0,1-1.92,5.91c4.81,1.52,9.44,2.16,13.17,1.11,16.39-4.63,37.3-5.26,39.33-7h0c-.18-3.43-.38-6.75-.58-9.89C369.75,1257.52,362.58,1262.9,346.19,1267.53Z"/><path class="cls-2" d="M321.77,1265.65c6.34-27.8,48.18-33.76,48.18-33.76s.95,10.15,1.82,23.87a7.29,7.29,0,0,0,.64-.59s1-13,2.54-35h0s-48-28.67-69.44-10.58C311.84,1223.19,321.77,1265.65,321.77,1265.65Z"/><path class="cls-1" d="M569.93,1222.74c-4.37,1.57-36.4,7-42.09,8.33-.76.17-3.25,1-6.15,2.07-.71,9.8-1.42,24.13-.74,36.12,1.15,20.43-5.8,42.43-24.25,46.41s-10.8,17.14-10.8,17.14h49.45c10.37,0,21.9-10.21,24.78-28.93s24.21-28.94,28.81-44.26S569.93,1222.74,569.93,1222.74Z"/><path class="cls-3" d="M507.66,900.56C496.07,848.94,493,662.94,487.53,610s-63.82-131.28-63.82-131.28L288.42,490.43s-24.48,101.87-9.31,127.49c63.19,106.7,92.16,288.54,95.49,316,4.5,37.16,88.73,210.08,121.2,275.69l65.84-16.68C558.39,1043.42,518.78,950.05,507.66,900.56Z"/><path class="cls-2" d="M561.86,1212.52l-39.19,9.08s-.42,4-.88,10.09a25.49,25.49,0,0,0,6.05-.62,150.66,150.66,0,0,0,15.92-4.4C557.43,1221.75,561.86,1212.52,561.86,1212.52Z"/><path class="cls-2" d="M521.79,1231.69c0,.47-.07,1-.1,1.45,2.9-1,5.39-1.9,6.15-2.07A25.49,25.49,0,0,1,521.79,1231.69Z"/><path class="cls-2" d="M543.76,1226.67a150.66,150.66,0,0,1-15.92,4.4c5.69-1.31,37.72-6.76,42.09-8.33l-8.07-10.22S557.43,1221.75,543.76,1226.67Z"/><path class="cls-2" d="M521.79,1231.69c.46-6.08.88-10.09.88-10.09l39.19-9.08q0-9.94-.22-19.58l-65.84,16.68c1.46,2.93,2.82,5.67,4.05,8.16A25.07,25.07,0,0,0,521.79,1231.69Z"/><path class="cls-6" d="M255.44,463.87s15.37,12.16,45.89,12.77c36.46.74,126.8-9.29,126.8-9.29a74.79,74.79,0,0,1,3.85,23s-110.34,27.83-174.27,4.07C257.71,494.47,249.47,479,255.44,463.87Z"/><path class="cls-7" d="M292.58,508.06c-9.17,0-16.63-8.45-16.63-18.83s7.46-18.83,16.63-18.83,16.64,8.45,16.64,18.83S301.76,508.06,292.58,508.06Zm0-32.14c-6.13,0-11.12,6-11.12,13.31s5,13.31,11.12,13.31,11.12-6,11.12-13.31S298.71,475.92,292.58,475.92Z"/><path class="cls-6" d="M535.18,495.63l-89.59,78a15.54,15.54,0,0,1-21.93-1.52L309.33,440.84a15.56,15.56,0,0,1,1.52-21.93l89.59-78a15.54,15.54,0,0,1,21.93,1.51L536.7,473.7A15.55,15.55,0,0,1,535.18,495.63Z"/><path class="cls-2" d="M402.63,485.78c-1.27.34-47.59,5.78-47.6,15.35,0,11.07,13.58,25.9,26.37,25.2,5.19-.28,29.09-22.26,29.09-22.26Z"/><path class="cls-2" d="M378.85,209.77c-5.27-12.78-8.35-32.24-8.26-56.34l-3.5.69-58.84,11.65s1.34,18.52,1.38,36v.43c.07,15.15-10.24,30.36,14.07,36.36C331.2,240.38,389.91,236.61,378.85,209.77Z"/><path class="cls-8" d="M308.25,165.77s1.34,18.52,1.38,36c32.92-.93,50.33-31,57.46-47.61Z"/><path class="cls-2" d="M297.25,182.29s77.9,1.28,78-47.24,10.14-81-39.59-83.91S276.2,66.77,272.24,83,277,180.7,297.25,182.29Z"/><path class="cls-1" d="M300.14,50s21.33,56.93,54.06,65.35,46.93-.36,46.93-.36S376,95,370.81,60.18C370.81,60.18,316.23,22.86,300.14,50Z"/><path class="cls-1" d="M305.42,54.57S289.61,60.49,283.1,72c-6.37,11.28-11.79,26.22-10.53,44.55,0,0-16.07-38.7,2-60.59C293.71,32.78,305.42,54.57,305.42,54.57Z"/><path class="cls-9" d="M402.63,485.78s-11.1-3.56-18.52-2.53-12.91-.14-12.91,1.93,9.58,3.05,11.62,4.05S402.63,485.78,402.63,485.78Z"/><path class="cls-3" d="M416.48,214.84s55.3,3.88,76.49,55.41,61.42,138,61.42,152.59-22.47,59.42-143.12,85.22c0,0-12.48-13.13-11.72-23.51,0,0,75.31-64.69,75.11-72.25-.38-14.3-12.35-33.18-78.47-99.33C378.21,295,416.48,214.84,416.48,214.84Z"/></g></g></svg>