<svg xmlns="http://www.w3.org/2000/svg" viewBox="0 0 340.04 246.1"><g id="Warstwa_2" data-name="Warstwa 2"><g id="Layer_1" data-name="Layer 1"><path fill="#f2f1e6" d="M285.29,3.31C305.92,12.24,318,28.82,326,48a170,170,0,0,1,13.15,85,164.19,164.19,0,0,1-16.23,56.54,178.18,178.18,0,0,1-15.44,25.82c-11.6,17.93-28.12,32.63-49,30.55-45.59-5.35-75.12-43.57-121.85-42.4-28.55.72-54,22.14-81.47,13.73C10.75,205.36-3.46,156.37.69,114.69c.73-9.42,1.76-20.16,3.56-31C9.65,51.32,22,18.38,54.12,18.55c7.8.46,15.19,3.84,22.47,8.39,27.76,26.72,67,38.72,96.93,10,8.66-5.23,17.26-10.72,26-15.8C217,10.92,235.07,2.37,255.33.62A65.93,65.93,0,0,1,285.29,3.31Z"/></g></g></svg>